<svg xmlns="http://www.w3.org/2000/svg" xmlns:xlink="http://www.w3.org/1999/xlink" version="1.1" id="Layer_1" x="0px" y="0px" width="100px" height="100px" viewBox="0 0 100 100" enable-background="new 0 0 100 100" xml:space="preserve">
<path fill-rule="evenodd" clip-rule="evenodd" fill="rgba(255,255,255,.25)" d="M48.678,58.378c2.991,2.287,11.869,4.375,18.997,8.247  c2.35,1.278,2.552,3.169,2.728,4.312c0.176,1.145,0.55,13.98,0.55,13.98H1.677c0,0,0.372-12.836,0.549-13.98  c0.176-1.144,0.191-2.88,2.728-4.312c7.063-3.989,15.967-5.828,18.959-8.115c1.188-0.909,0.879-2.376,1.143-3.785  c0.266-1.407,1.145-0.439,1.145-1.936c0-1.504,0.281-1.242,0.116-3.241c-0.144-1.741-2.534-1.928-2.668-5.188  c-0.028-0.687-1.231-1.145-1.936-2.199c-0.705-1.057-1.849-2.904-1.849-5.017c0-2.111,0.44-1.584,0.44-4.225  c0-2.64-0.099-4.17,1.408-10.296c0.562-2.285,2.474-4.964,4.389-6.176c2.582-1.634,1.545,0.545,10.219-1.392  c5.624-1.255,14.432,4.576,14.521,9.24c0.118,6.308,0.504,5.834,0.878,8.448c0.264,1.848,0.792,1.407,0.792,3.519  c0,2.113-1.145,4.753-1.847,5.809c-0.704,1.056-1.357,2.75-1.446,3.432c-0.46,3.525-2.813,2.71-2.912,4.598  c-0.09,1.725-0.201,1.504,0.056,2.848c0.216,1.124,0.871-0.072,1.135,1.336C47.759,55.694,47.576,57.764,48.678,58.378z"/>
<g>
	<path fill-rule="evenodd" clip-rule="evenodd" fill="rgba(255,255,255,.25)" d="M64.039,46.415c0.491,0.736,1.331,1.056,1.35,1.534   c0.095,2.275,1.761,2.404,1.862,3.619c0.115,1.395-0.083,1.211-0.083,2.261c0,1.043-0.612,0.368-0.798,1.35   c-0.184,0.981,0.032,2.006-0.796,2.641c-0.938,0.717-2.701,1.387-4.807,2.153c3.03,1.125,6.372,2.45,9.513,4.097   c3.386,1.773,3.455,3.962,3.717,5.66c0.093,0.601,0.212,3.428,0.318,6.51h24.066c0,0-0.261-8.952-0.383-9.751   c-0.123-0.798-0.209-2.082-1.901-3.008c-4.961-2.714-11.161-4.158-13.247-5.753c-0.77-0.43-0.644-1.873-0.825-2.855   c-0.186-0.981-0.643-0.148-0.792-0.932c-0.181-0.938-0.104-0.784-0.039-1.985c0.067-1.318,1.709-0.75,2.03-3.208   c0.062-0.476,0.519-1.657,1.008-2.394c0.492-0.736,1.29-2.578,1.29-4.052c0-1.473-0.368-1.166-0.553-2.454   c-0.26-1.824-0.53-1.493-0.613-5.894c-0.062-3.253-6.205-7.321-10.128-6.445c-6.051,1.351-5.328-0.169-7.128,0.971   c-1.335,0.845-2.67,2.714-3.062,4.309c-1.052,4.272-0.983,5.34-0.983,7.182c0,1.841-0.307,1.474-0.307,2.946   C62.749,44.39,63.547,45.679,64.039,46.415z"/>
</g>
</svg>