<svg xmlns="http://www.w3.org/2000/svg" xmlns:xlink="http://www.w3.org/1999/xlink" version="1.1" id="Layer_1" x="0px" y="0px" width="100px" height="100px" viewBox="0 0 100 100" enable-background="new 0 0 100 100" xml:space="preserve">
<path fill-rule="evenodd" clip-rule="evenodd" fill="rgba(255,255,255,.25)" d="M66.099,60.352c3.914,2.993,15.528,5.725,24.854,10.791  c3.074,1.67,3.339,4.145,3.569,5.641c0.23,1.497,0.718,18.291,0.718,18.291H4.608c0,0,0.488-16.794,0.718-18.291  c0.23-1.496,0.251-3.767,3.569-5.641c9.24-5.219,20.888-7.625,24.802-10.618c1.555-1.188,1.151-3.108,1.497-4.95  s1.497-0.576,1.497-2.533c0-1.968,0.367-1.625,0.152-4.241c-0.188-2.279-3.315-2.522-3.491-6.788  c-0.036-0.898-1.611-1.498-2.532-2.878c-0.921-1.382-2.417-3.799-2.417-6.562s0.576-2.073,0.576-5.526  c0-3.454-0.129-5.455,1.842-13.47c0.735-2.99,3.237-6.496,5.742-8.081c3.377-2.137,2.02,0.713,13.368-1.819  c7.357-1.642,18.881,5.986,18.996,12.088c0.155,8.252,0.662,7.633,1.15,11.052c0.346,2.417,1.037,1.841,1.037,4.604  c0,2.764-1.497,6.217-2.418,7.599c-0.921,1.382-1.775,3.598-1.893,4.489c-0.602,4.611-3.68,3.545-3.809,6.017  c-0.117,2.256-0.265,1.968,0.072,3.726c0.282,1.471,1.139-0.094,1.484,1.748C64.896,56.841,64.656,59.548,66.099,60.352z"/>
</svg>